<?xml version="1.0" encoding="utf-8"?>
<!-- Generator: Adobe Illustrator 26.0.3, SVG Export Plug-In . SVG Version: 6.00 Build 0)  -->
<svg version="1.1" id="Layer_1" xmlns="http://www.w3.org/2000/svg" xmlns:xlink="http://www.w3.org/1999/xlink" x="0px" y="0px"
	 viewBox="0 0 176.18 36.51" style="enable-background:new 0 0 176.18 36.51;" xml:space="preserve">
<style type="text/css">
	.st0{fill:url(#SVGID_1_);}
</style>
<g transform="translate(-22.413 -32.5)">
	
		<linearGradient id="SVGID_1_" gradientUnits="userSpaceOnUse" x1="-122.1057" y1="459.8559" x2="-121.5248" y2="459.8559" gradientTransform="matrix(303.3264 0 0 -36.5139 37060.2734 16841.8926)">
		<stop  offset="0" style="stop-color:#1E1D3E"/>
		<stop  offset="0.019" style="stop-color:#1E2144"/>
		<stop  offset="0.108" style="stop-color:#1E2E59"/>
		<stop  offset="0.193" style="stop-color:#1E3667"/>
		<stop  offset="0.271" style="stop-color:#1E396B"/>
		<stop  offset="0.341" style="stop-color:#18457C"/>
		<stop  offset="0.571" style="stop-color:#076BB0"/>
		<stop  offset="0.684" style="stop-color:#007AC4"/>
		<stop  offset="0.742" style="stop-color:#0177BF"/>
		<stop  offset="0.807" style="stop-color:#056DB1"/>
		<stop  offset="0.877" style="stop-color:#0B5C9B"/>
		<stop  offset="0.95" style="stop-color:#14457B"/>
		<stop  offset="1" style="stop-color:#1B3260"/>
	</linearGradient>
	<path class="st0" d="M144.44,41.89c-0.5,0.45-0.76,1.11-0.71,1.78v15.67c-0.05,0.68,0.22,1.34,0.71,1.8
		c0.5,0.43,1.14,0.66,1.8,0.64c0.67,0.02,1.32-0.21,1.83-0.64c0.5-0.46,0.77-1.12,0.73-1.8V43.67c0.05-0.68-0.22-1.33-0.73-1.78
		c-0.52-0.41-1.17-0.63-1.83-0.6C145.58,41.25,144.94,41.47,144.44,41.89 M43.14,51.21c0.1,1.7-0.37,3.39-1.33,4.79
		c-0.9,1.14-2.29,1.77-3.74,1.71c-1.44,0.08-2.84-0.54-3.75-1.66c-0.96-1.39-1.43-3.06-1.32-4.75c-0.11-1.68,0.35-3.35,1.32-4.73
		c0.92-1.12,2.31-1.73,3.75-1.64c1.44-0.08,2.83,0.52,3.75,1.63C42.78,47.91,43.25,49.55,43.14,51.21 M47.1,56.67
		c0.77-1.71,1.15-3.58,1.12-5.46c0.04-1.86-0.34-3.71-1.12-5.4c-0.68-1.46-1.75-2.69-3.1-3.57c-0.88-0.55-1.85-0.92-2.87-1.1
		c-2.8-0.47-5.67,0.13-8.05,1.67v-8.03c0.03-0.63-0.22-1.23-0.68-1.66c-0.51-0.42-1.17-0.63-1.83-0.6c-0.68-0.03-1.34,0.2-1.85,0.65
		c-0.48,0.43-0.74,1.06-0.71,1.7v12.01c-1.95,1.98-3.69,4.15-5.2,6.48c-0.57,0.68-0.51,1.69,0.14,2.3c0.3,0.26,0.69,0.41,1.09,0.4
		c0.47,0,0.92-0.2,1.23-0.56c0.99-1.12,1.91-2.13,2.75-3.03v6.65c-0.03,0.65,0.21,1.29,0.67,1.75c0.49,0.45,1.14,0.68,1.8,0.65
		c0.67,0.03,1.33-0.2,1.83-0.65c0.47-0.46,0.72-1.1,0.68-1.75v-1.01c0.59,1.1,1.48,2.01,2.58,2.61c1.18,0.63,2.5,0.95,3.83,0.93
		c1.62,0.03,3.2-0.43,4.56-1.3C45.33,59.46,46.43,58.18,47.1,56.67 M67.89,60.92c0.47-0.44,0.73-1.06,0.71-1.71V43.47
		c0.03-0.65-0.22-1.28-0.68-1.74c-0.51-0.45-1.18-0.69-1.86-0.65c-0.67-0.03-1.33,0.2-1.83,0.65c-0.47,0.45-0.72,1.09-0.68,1.74
		v9.06c0.07,1.35-0.39,2.68-1.27,3.71c-0.87,0.94-2.12,1.45-3.4,1.4c-1,0.08-1.98-0.29-2.68-1.01c-0.64-0.91-0.94-2.02-0.85-3.13
		V43.47c0.03-0.65-0.22-1.28-0.68-1.74c-0.51-0.45-1.18-0.69-1.86-0.65c-0.67-0.03-1.33,0.2-1.83,0.65
		c-0.47,0.45-0.73,1.08-0.7,1.74v9.99c0,5.46,2.44,8.21,7.31,8.21c1.24,0.02,2.47-0.28,3.57-0.87c1.06-0.58,1.93-1.45,2.51-2.5v1.01
		c-0.03,0.62,0.21,1.23,0.65,1.66c0.48,0.42,1.11,0.64,1.75,0.6c0.67,0.02,1.32-0.21,1.83-0.65 M89.76,60.91
		c0.46-0.47,0.71-1.12,0.67-1.78v-9.99c0-2.73-0.59-4.78-1.75-6.13c-1.38-1.44-3.33-2.19-5.32-2.03c-1.34-0.02-2.67,0.29-3.86,0.9
		c-1.13,0.58-2.07,1.47-2.71,2.56v-1.1c0.03-0.62-0.22-1.21-0.67-1.64c-0.47-0.43-1.09-0.66-1.72-0.64
		c-0.68-0.04-1.35,0.2-1.86,0.65c-0.47,0.44-0.72,1.06-0.7,1.71v15.71c-0.04,0.66,0.2,1.31,0.67,1.78c0.5,0.46,1.17,0.69,1.85,0.65
		c0.68,0.04,1.35-0.2,1.86-0.65c0.48-0.47,0.72-1.12,0.68-1.78v-9.06c-0.07-1.36,0.4-2.69,1.32-3.69c0.92-0.94,2.19-1.44,3.51-1.38
		c1.03-0.08,2.04,0.31,2.75,1.06c0.67,0.99,0.97,2.18,0.87,3.37v9.7c-0.03,0.66,0.22,1.31,0.68,1.78c0.51,0.45,1.18,0.69,1.86,0.65
		C88.56,61.62,89.24,61.38,89.76,60.91 M107.67,51.3c0.11,1.69-0.35,3.36-1.32,4.75c-1.85,2.06-5.02,2.22-7.08,0.37
		c-0.15-0.13-0.29-0.27-0.42-0.42c-0.97-1.4-1.44-3.09-1.33-4.79c-0.11-1.66,0.36-3.31,1.33-4.67c0.93-1.1,2.33-1.7,3.77-1.63
		c1.43-0.08,2.81,0.53,3.71,1.64C107.32,47.94,107.79,49.61,107.67,51.3 M112.02,60.87c0.47-0.46,0.72-1.1,0.68-1.75V34.86
		c0.02-0.65-0.25-1.27-0.73-1.71c-0.52-0.45-1.19-0.68-1.87-0.65c-0.66-0.03-1.31,0.2-1.8,0.64c-0.45,0.42-0.69,1.03-0.67,1.64v9.62
		c-0.58-1.08-1.47-1.95-2.56-2.51c-1.18-0.61-2.49-0.92-3.82-0.9c-3.3-0.09-6.34,1.81-7.69,4.82c-0.78,1.69-1.16,3.54-1.12,5.4
		c-0.04,1.88,0.34,3.75,1.12,5.46c0.67,1.5,1.76,2.77,3.14,3.67c1.36,0.87,2.95,1.33,4.56,1.3c1.34,0.02,2.66-0.3,3.83-0.93
		c1.1-0.6,1.99-1.5,2.57-2.61v1.01c-0.03,0.65,0.22,1.29,0.68,1.75C109.42,61.74,110.95,61.74,112.02,60.87 M128.99,49.6h-9.17
		c0.05-1.38,0.58-2.7,1.49-3.74c0.86-0.88,2.06-1.36,3.3-1.3c1.19-0.06,2.35,0.4,3.17,1.27C128.61,46.91,129.03,48.25,128.99,49.6
		 M133.33,50.58c0.04-1.75-0.33-3.49-1.1-5.07c-0.69-1.39-1.76-2.54-3.09-3.33c-1.42-0.81-3.03-1.22-4.67-1.18
		c-1.76-0.03-3.49,0.42-5.01,1.3c-1.47,0.86-2.67,2.13-3.43,3.66c-0.83,1.68-1.25,3.53-1.21,5.4c-0.15,2.8,0.86,5.54,2.81,7.56
		c2.05,1.91,4.79,2.91,7.59,2.76c1.13-0.01,2.25-0.17,3.33-0.47c1.09-0.28,2.13-0.7,3.12-1.24c0.86-0.36,1.44-1.18,1.5-2.11
		c0.03-0.51-0.13-1.02-0.43-1.43c-0.26-0.35-0.68-0.54-1.12-0.53c-0.63,0.09-1.24,0.31-1.78,0.65c-0.73,0.34-1.48,0.64-2.25,0.9
		c-0.74,0.23-1.52,0.34-2.3,0.33c-1.42,0.1-2.83-0.37-3.89-1.32c-1.01-1.14-1.57-2.61-1.58-4.13h11.98
		C132.81,52.32,133.32,51.75,133.33,50.58 M139.77,60.94c0.5-0.46,0.77-1.12,0.73-1.8V34.89c0.05-0.68-0.22-1.33-0.73-1.78
		c-0.52-0.41-1.17-0.63-1.83-0.6c-0.65-0.03-1.29,0.19-1.8,0.6c-0.5,0.45-0.76,1.11-0.71,1.78v24.23c-0.05,0.68,0.22,1.34,0.71,1.8
		C137.2,61.77,138.7,61.77,139.77,60.94 M148.43,37.16c0.54-0.51,0.84-1.23,0.81-1.97c0.03-0.74-0.28-1.46-0.84-1.96
		c-1.29-0.97-3.07-0.97-4.36,0c-0.55,0.5-0.84,1.22-0.81,1.96c-0.03,0.74,0.26,1.46,0.81,1.97
		C145.33,38.15,147.13,38.15,148.43,37.16 M169.91,60.92c0.46-0.47,0.71-1.12,0.67-1.78v-9.99c0-2.73-0.59-4.78-1.75-6.13
		c-1.38-1.44-3.33-2.19-5.32-2.03c-1.34-0.02-2.67,0.28-3.86,0.9c-1.13,0.58-2.07,1.47-2.71,2.56v-1.1
		c0.03-0.62-0.22-1.22-0.67-1.64c-0.47-0.43-1.09-0.66-1.72-0.64c-0.68-0.04-1.35,0.2-1.86,0.65c-0.46,0.44-0.7,1.06-0.67,1.7v15.71
		c-0.04,0.66,0.2,1.31,0.67,1.78c0.5,0.46,1.17,0.69,1.85,0.65c0.68,0.04,1.35-0.2,1.86-0.65c0.48-0.47,0.72-1.12,0.68-1.78v-9.06
		c-0.07-1.36,0.4-2.69,1.32-3.69c0.92-0.94,2.2-1.44,3.51-1.38c1.03-0.08,2.04,0.31,2.75,1.06c0.67,0.99,0.97,2.18,0.87,3.37v9.7
		c-0.03,0.66,0.21,1.31,0.68,1.78c0.51,0.45,1.18,0.69,1.86,0.65c0.69,0.06,1.37-0.17,1.88-0.64 M188.01,50.89
		c0.09,1.57-0.39,3.11-1.37,4.34c-2.06,2.09-5.43,2.11-7.52,0.05c-0.02-0.02-0.03-0.03-0.05-0.05c-0.98-1.23-1.47-2.78-1.38-4.34
		c-0.09-1.58,0.4-3.14,1.38-4.39c2.06-2.09,5.43-2.11,7.52-0.05c0.02,0.02,0.03,0.03,0.05,0.05
		C187.62,47.75,188.11,49.31,188.01,50.89 M193.06,43.47c0.03-0.65-0.22-1.28-0.68-1.74c-1.07-0.87-2.59-0.87-3.66,0
		c-0.46,0.44-0.71,1.07-0.68,1.71v1.06c-0.59-1.1-1.5-2-2.61-2.58c-1.2-0.62-2.54-0.94-3.9-0.92c-1.63-0.03-3.23,0.4-4.62,1.24
		c-1.36,0.84-2.46,2.05-3.15,3.49c-0.77,1.62-1.15,3.39-1.12,5.18c-0.04,1.78,0.35,3.55,1.13,5.15c0.7,1.43,1.79,2.64,3.15,3.47
		c1.39,0.84,2.99,1.27,4.61,1.24c1.35,0.02,2.69-0.29,3.89-0.92c1.1-0.58,2.01-1.48,2.61-2.58v2.61c0,3.46-1.77,5.19-5.32,5.2
		c-0.9,0.01-1.79-0.1-2.65-0.33c-0.89-0.26-1.77-0.57-2.62-0.93c-0.37-0.15-0.74-0.31-1.1-0.42c-0.29-0.11-0.59-0.17-0.9-0.19
		c-0.44-0.02-0.85,0.18-1.12,0.53c-0.3,0.41-0.45,0.92-0.42,1.43c0.06,0.94,0.64,1.77,1.5,2.16c2.28,1.18,4.82,1.75,7.39,1.65
		c3.38,0,5.94-0.81,7.68-2.39c1.74-1.6,2.61-3.95,2.61-7.06V43.47L193.06,43.47z M195.91,35.13h-0.73v-0.96h0.73
		c0.16-0.02,0.33,0.02,0.46,0.11c0.11,0.09,0.16,0.23,0.15,0.37c0.01,0.14-0.05,0.28-0.15,0.37
		C196.23,35.1,196.07,35.13,195.91,35.13 M197.06,36.74c0.05-0.04,0.08-0.11,0.08-0.17c0-0.05-0.02-0.11-0.05-0.15l-0.39-0.6
		c-0.05-0.08-0.11-0.16-0.19-0.22c-0.06-0.05-0.14-0.09-0.22-0.11c0.22-0.03,0.42-0.13,0.57-0.29c0.14-0.16,0.21-0.37,0.2-0.59
		c0.01-0.25-0.08-0.49-0.26-0.67c-0.23-0.17-0.51-0.25-0.79-0.23h-1.09c-0.07-0.01-0.14,0.02-0.2,0.06
		c-0.05,0.05-0.08,0.13-0.08,0.2v2.53c0,0.07,0.03,0.15,0.08,0.2c0.11,0.11,0.28,0.12,0.39,0.01c0.06-0.05,0.09-0.13,0.09-0.21
		v-0.96h0.42c0.09-0.01,0.17,0.01,0.25,0.06c0.08,0.05,0.14,0.12,0.19,0.2l0.57,0.87c0.02,0.04,0.06,0.08,0.11,0.09
		c0.04,0.02,0.09,0.03,0.14,0.03C196.95,36.8,197.02,36.78,197.06,36.74 M198.15,35.26c0.01,0.42-0.09,0.83-0.29,1.19
		c-0.19,0.35-0.48,0.64-0.82,0.84c-0.36,0.21-0.77,0.31-1.18,0.31c-0.42,0-0.83-0.1-1.19-0.31c-0.35-0.19-0.64-0.48-0.82-0.84
		c-0.39-0.75-0.39-1.64,0-2.39c0.19-0.35,0.48-0.64,0.82-0.84c0.36-0.21,0.78-0.31,1.19-0.31c0.41-0.01,0.82,0.1,1.18,0.31
		c0.35,0.2,0.63,0.49,0.82,0.84C198.04,34.44,198.15,34.85,198.15,35.26 M198.24,36.66c0.25-0.43,0.37-0.91,0.36-1.4
		c0-0.49-0.12-0.97-0.36-1.4c-0.24-0.41-0.58-0.75-0.99-0.99c-0.43-0.25-0.92-0.37-1.41-0.36c-0.49,0-0.98,0.12-1.41,0.36
		c-0.85,0.49-1.37,1.41-1.35,2.39c0,0.49,0.12,0.97,0.36,1.4c0.24,0.41,0.58,0.76,0.99,0.99c0.43,0.25,0.92,0.38,1.41,0.37
		C196.82,38.02,197.73,37.51,198.24,36.66"/>
</g>
</svg>
