<?xml version="1.0" encoding="utf-8"?>
<!-- Generator: Adobe Illustrator 26.0.3, SVG Export Plug-In . SVG Version: 6.00 Build 0)  -->
<svg version="1.1" id="Ebene_1" xmlns="http://www.w3.org/2000/svg" xmlns:xlink="http://www.w3.org/1999/xlink" x="0px" y="0px"
	 viewBox="0 0 146 149.8" style="enable-background:new 0 0 146 149.8;" xml:space="preserve">
<style type="text/css">
	.st0{fill:none;}
	.st1{fill:#FFFFFF;}
</style>
<g>
	<rect x="15" y="11.4" width="115.9" height="118.9"/>
	<path class="st0" d="M15,130.3h115.9V11.4H15V130.3z M118.8,121.6h-91v-12.1h91V121.6z M38.4,98.6c0-1.4,0.5-2.6,1.4-3.5
		c1-1,2.1-1.5,3.4-1.5c1.4,0,2.5,0.5,3.5,1.5s1.5,2.2,1.5,3.5c0,1.4-0.5,2.6-1.4,3.6c-1,1-2.1,1.5-3.5,1.5c-1.3,0-2.5-0.5-3.4-1.5
		C38.9,101.2,38.4,100,38.4,98.6z M55.6,103.5h-0.8l-3.7-8.9l0.1,1.7v7.2h-0.9v-9.7h1.4c1.3,2.9,2.5,5.7,3.5,8.5
		c0.2-0.6,0.7-1.8,1.4-3.6l2.1-5h1.4v9.7h-0.9v-8.8L55.6,103.5z M62.8,103.5v-9.8h2.5c1,0,1.8,0.3,2.4,0.8s0.9,1.3,0.9,2.2
		c0,0.4-0.1,0.8-0.3,1.2c-0.5,1.1-1.5,1.6-2.9,1.6h-1.6v4C63.8,103.5,62.8,103.5,62.8,103.5z M75.8,98.2V99h-4.1v3.6h4.1v0.9h-5
		v-9.7h5v0.9h-4.1v3.5C71.7,98.2,75.8,98.2,75.8,98.2z M118.8,98.2V99h-4.1v3.6h4.1v0.9h-5v-9.7h5v0.9h-4.1v3.5
		C114.7,98.2,118.8,98.2,118.8,98.2z M110.1,82.6c0-4.9,3.9-7.8,8.7-7.8v7.3c-3.7,0.9-5.7,2.6-8.7,5.7V82.6z M109.9,94.3
		c0.9,0.5,1.5,1.2,1.8,2h-1.1c-0.9-1.2-2-1.8-3.5-1.8c-1.1,0-2,0.4-2.7,1.2c-0.8,0.8-1.2,1.7-1.2,2.8c0,1.1,0.4,2.1,1.1,2.9
		c0.8,0.8,1.7,1.3,2.7,1.3c1.4,0,2.6-0.6,3.5-1.9h1.1c-1.1,1.9-2.6,2.8-4.4,2.8c-1.4,0-2.5-0.5-3.5-1.5s-1.5-2.1-1.5-3.5
		s0.5-2.6,1.4-3.6s2.1-1.5,3.5-1.5C108.2,93.6,109.1,93.9,109.9,94.3z M93.8,44.8c0-6.9,5.4-10.8,12.1-10.8v10.2
		c-4.9,1.6-8.2,3.7-12.1,7.9V44.8z M93.8,57.7c4-4.2,7.2-6.3,12.1-7.9v38H93.8V57.7z M92.7,93.8h1.2c0.6,0.9,1.6,2.4,3.1,4.7
		c0.4,0.6,0.9,1.2,1.3,1.9c0.5,0.7,0.9,1.4,1.2,1.9v-8.4h0.9v9.7h-1.1c-0.6-1-1.5-2.4-2.8-4.3S94.3,96,93.7,95v8.7h-0.9v-9.9H92.7z
		 M90.3,94.7h-4.1v3.5h4.1V99h-4.1v3.6h4.1v0.9h-5v-9.7h5V94.7z M80.9,82.6c0-4.9,3.9-7.8,8.7-7.8v7.3c-3.7,0.9-5.7,2.6-8.7,5.7
		V82.6z M77.7,93.8h5.5v0.9h-2.3v8.8H80v-8.8h-2.2v-0.9H77.7z M27.9,32.6c0-6.9,5.4-12.4,12.1-12.4v19.6c-4.6,1.8-8.7,5.1-12.1,9.6
		V32.6z M27.8,68.7c0-13.9,11-25.2,24.5-25.2s24.5,11.3,24.5,25.2v19h-12v-19c0-7.1-5.6-12.8-12.5-12.8s-12.5,5.8-12.5,12.8v19h-12
		V68.7z M29.1,95.1c0.9-1,2.1-1.5,3.5-1.5c0.9,0,1.8,0.2,2.6,0.7c0.9,0.5,1.5,1.2,1.8,2h-1.1c-0.9-1.2-2-1.8-3.5-1.8
		c-1.1,0-2,0.4-2.7,1.2c-0.8,0.8-1.2,1.7-1.2,2.8c0,1.1,0.4,2.1,1.1,2.9c0.8,0.8,1.7,1.3,2.7,1.3c1.4,0,2.6-0.6,3.5-1.9H37
		c-1.1,1.9-2.6,2.8-4.4,2.8c-1.4,0-2.5-0.5-3.5-1.5s-1.5-2.1-1.5-3.5C27.7,97.3,28.1,96.1,29.1,95.1z"/>
	<path class="st0" d="M46.2,101.6c0.8-0.8,1.2-1.8,1.2-2.9s-0.4-2.1-1.2-2.9s-1.7-1.2-2.8-1.2s-2.1,0.4-2.9,1.2
		c-0.8,0.8-1.2,1.8-1.2,2.9s0.4,2.1,1.2,2.9s1.7,1.2,2.9,1.2C44.4,102.8,45.4,102.4,46.2,101.6z"/>
	<path class="st0" d="M67.1,98.1c0.4-0.4,0.6-0.9,0.6-1.5s-0.2-1.1-0.7-1.4s-1.1-0.5-1.8-0.5h-1.5v4h1.6
		C66.1,98.6,66.6,98.5,67.1,98.1z"/>
	<path class="st1" d="M14.2,10.5v120.7h117.6V10.5H14.2z M130.9,130.3H15V11.4h115.9V130.3z"/>
	<path class="st1" d="M39.8,68.7c0-7.1,5.6-12.8,12.5-12.8s12.5,5.8,12.5,12.8v19h12.1v-19c0-13.9-11-25.2-24.5-25.2
		S27.9,54.8,27.9,68.7v19H40v-19H39.8z"/>
	<path class="st1" d="M39.9,39.8V20.2c-6.7,0-12.1,5.6-12.1,12.4v16.8C31.2,44.8,35.4,41.5,39.9,39.8z"/>
	<path class="st1" d="M106,44.2V34.1c-6.7,0-12.1,3.9-12.1,10.8v7.4C97.8,48,101,45.9,106,44.2z"/>
	<path class="st1" d="M89.6,82.1v-7.3c-4.8,0-8.7,2.8-8.7,7.8v5.3C84,84.7,86,83.1,89.6,82.1z"/>
	<path class="st1" d="M118.8,82.1v-7.3c-4.8,0-8.7,2.8-8.7,7.8v5.3C113.1,84.7,115.1,83.1,118.8,82.1z"/>
	<path class="st1" d="M106,49.7c-4.9,1.6-8.2,3.7-12.1,7.9v30.1H106V49.7z"/>
	<polygon class="st1" points="66.7,115.2 67,115.1 67.1,114.9 67.2,114.6 67.1,114.4 67,114.1 66.7,114 66.2,113.9 65.6,113.9 
		65.6,115.3 66.2,115.3 	"/>
	<polygon class="st1" points="88.4,115.2 88.7,115.1 88.8,114.9 88.9,114.6 88.8,114.4 88.7,114.1 88.4,114 88,113.9 87.4,113.9 
		87.4,115.3 88,115.3 	"/>
	<path class="st1" d="M27.8,121.6h91v-12.1h-91C27.8,109.5,27.8,121.6,27.8,121.6z M87,113.6h1.1c0.4,0,0.7,0.1,0.9,0.3
		c0.2,0.2,0.3,0.4,0.3,0.8c0,0.3-0.1,0.6-0.3,0.8c-0.2,0.2-0.5,0.3-0.9,0.3h-0.7v1.8H87V113.6z M79.8,113.6h0.4v2.4
		c0,0.2,0,0.3,0.1,0.5l0.1,0.3l0.2,0.2l0.2,0.1l0.2,0.1h0.2h0.2l0.2-0.1l0.2-0.1l0.2-0.2l0.1-0.3c0-0.1,0.1-0.3,0.1-0.5v-2.4h0.4
		v2.4c0,0.2,0,0.3-0.1,0.5l-0.2,0.5c-0.1,0.2-0.2,0.3-0.4,0.4c-0.2,0.1-0.4,0.1-0.7,0.1c-0.3,0-0.5,0-0.7-0.1s-0.3-0.2-0.4-0.4
		l-0.2-0.5c0-0.2-0.1-0.3-0.1-0.5L79.8,113.6L79.8,113.6z M71.8,114.7c0.1-0.2,0.2-0.5,0.4-0.6c0.2-0.2,0.4-0.3,0.6-0.4
		s0.5-0.2,0.8-0.2s0.5,0.1,0.8,0.2c0.2,0.1,0.4,0.2,0.6,0.4c0.2,0.2,0.3,0.4,0.4,0.6s0.1,0.5,0.1,0.8s0,0.6-0.1,0.8
		c-0.1,0.2-0.2,0.5-0.4,0.6c-0.2,0.2-0.4,0.3-0.6,0.4s-0.5,0.2-0.8,0.2s-0.5-0.1-0.8-0.2c-0.2-0.1-0.4-0.2-0.6-0.4
		c-0.2-0.2-0.3-0.4-0.4-0.6s-0.1-0.5-0.1-0.8S71.7,114.9,71.8,114.7z M65.2,113.6h1.2c0.4,0,0.7,0.1,0.9,0.3
		c0.2,0.2,0.3,0.4,0.3,0.8c0,0.3-0.1,0.5-0.2,0.7c-0.2,0.2-0.4,0.3-0.7,0.3l1.1,1.8h-0.5l-1-1.8h-0.6v1.8h-0.4v-3.9H65.2z
		 M57.4,114.7c0.1-0.2,0.2-0.5,0.4-0.6c0.2-0.2,0.4-0.3,0.6-0.4s0.5-0.2,0.8-0.2s0.6,0,0.8,0.1s0.4,0.2,0.6,0.4l-0.3,0.3
		c-0.1-0.1-0.3-0.2-0.5-0.3c-0.2-0.1-0.4-0.1-0.6-0.1c-0.2,0-0.5,0-0.6,0.1c-0.2,0.1-0.4,0.2-0.5,0.4c-0.1,0.2-0.2,0.3-0.3,0.5
		s-0.1,0.4-0.1,0.6s0,0.4,0.1,0.6s0.2,0.4,0.3,0.5c0.1,0.2,0.3,0.3,0.5,0.4s0.4,0.1,0.6,0.1c0.2,0,0.4,0,0.6-0.1
		c0.2,0,0.3-0.1,0.5-0.2v-1.3h-0.9v-0.4h1.3v1.9c-0.2,0.1-0.4,0.2-0.7,0.3c-0.3,0.1-0.5,0.1-0.7,0.1c-0.3,0-0.5-0.1-0.8-0.2
		c-0.2-0.1-0.4-0.2-0.6-0.4c-0.2-0.2-0.3-0.4-0.4-0.6c-0.1-0.2-0.1-0.5-0.1-0.8C57.3,115.2,57.3,114.9,57.4,114.7z"/>
	<path class="st1" d="M72.4,116.7c0.1,0.2,0.3,0.3,0.5,0.4s0.4,0.1,0.6,0.1s0.5,0,0.6-0.1c0.2-0.1,0.4-0.2,0.5-0.4
		c0.1-0.2,0.2-0.3,0.3-0.5c0.1-0.2,0.1-0.4,0.1-0.6s0-0.4-0.1-0.6s-0.2-0.4-0.3-0.5c-0.1-0.2-0.3-0.3-0.5-0.4s-0.4-0.1-0.6-0.1
		s-0.5,0-0.6,0.1c-0.2,0.1-0.4,0.2-0.5,0.4c-0.1,0.2-0.2,0.3-0.3,0.5c-0.1,0.2-0.1,0.4-0.1,0.6s0,0.4,0.1,0.6
		C72.2,116.3,72.3,116.5,72.4,116.7z"/>
	<polygon class="st1" points="75.8,94.7 75.8,93.8 70.8,93.8 70.8,103.5 75.8,103.5 75.8,102.7 71.7,102.7 71.7,99 75.8,99 
		75.8,98.2 71.7,98.2 71.7,94.7 	"/>
	<polygon class="st1" points="80,103.5 80.9,103.5 80.9,94.7 83.2,94.7 83.2,93.8 77.7,93.8 77.7,94.7 80,94.7 	"/>
	<polygon class="st1" points="85.3,103.5 90.3,103.5 90.3,102.7 86.2,102.7 86.2,99 90.3,99 90.3,98.2 86.3,98.2 86.3,94.7 
		90.3,94.7 90.3,93.8 85.3,93.8 	"/>
	<path class="st1" d="M93.6,94.9c0.6,1,1.5,2.5,2.8,4.3c1.3,1.9,2.3,3.4,2.8,4.3h1.1v-9.7h-0.9v8.4c-0.3-0.6-0.7-1.2-1.2-1.9
		c-0.4-0.6-0.9-1.2-1.3-1.9c-1.5-2.2-2.5-3.8-3.1-4.7h-1.2v9.8h0.9v-8.6H93.6z"/>
	<path class="st1" d="M102.5,98.7c0,1.4,0.5,2.5,1.5,3.5s2.1,1.5,3.5,1.5c1.9,0,3.3-0.9,4.4-2.8h-1.1c-1,1.3-2.2,1.9-3.5,1.9
		c-1.1,0-2-0.4-2.7-1.3c-0.8-0.8-1.1-1.8-1.1-2.9s0.4-2,1.2-2.8c0.8-0.8,1.7-1.2,2.7-1.2c1.4,0,2.6,0.6,3.5,1.8h1.1
		c-0.3-0.8-0.9-1.5-1.8-2c-0.8-0.5-1.7-0.7-2.6-0.7c-1.4,0-2.5,0.5-3.5,1.5C102.9,96.1,102.5,97.3,102.5,98.7z"/>
	<polygon class="st1" points="118.8,94.7 118.8,93.8 113.8,93.8 113.8,103.5 118.8,103.5 118.8,102.7 114.7,102.7 114.7,99 
		118.8,99 118.8,98.2 114.7,98.2 114.7,94.7 	"/>
	<path class="st1" d="M32.6,103.7c1.9,0,3.3-0.9,4.4-2.8h-1c-1,1.3-2.2,1.9-3.5,1.9c-1.1,0-2-0.4-2.7-1.3c-0.8-0.8-1.1-1.8-1.1-2.9
		s0.4-2,1.2-2.8c0.8-0.8,1.7-1.2,2.7-1.2c1.4,0,2.6,0.6,3.5,1.8H37c-0.3-0.8-0.9-1.5-1.8-2c-0.8-0.5-1.7-0.7-2.6-0.7
		c-1.4,0-2.5,0.5-3.5,1.5c-0.9,1-1.4,2.2-1.4,3.6s0.5,2.5,1.5,3.5C30.1,103.2,31.3,103.7,32.6,103.7z"/>
	<path class="st1" d="M46.8,102.2c1-1,1.4-2.2,1.4-3.6s-0.5-2.6-1.5-3.5c-1-1-2.1-1.5-3.5-1.5c-1.3,0-2.5,0.5-3.4,1.5
		c-1,1-1.4,2.2-1.4,3.5c0,1.4,0.5,2.6,1.4,3.6c1,1,2.1,1.5,3.4,1.5C44.7,103.7,45.8,103.2,46.8,102.2z M39.3,98.6
		c0-1.1,0.4-2.1,1.2-2.9s1.7-1.2,2.9-1.2c1.1,0,2,0.4,2.8,1.2c0.8,0.8,1.2,1.8,1.2,2.9s-0.4,2.1-1.2,2.9s-1.7,1.2-2.8,1.2
		s-2.1-0.4-2.9-1.2C39.7,100.8,39.3,99.8,39.3,98.6z"/>
	<path class="st1" d="M60.1,103.5v-9.7h-1.4l-2.1,5c-0.7,1.8-1.2,3-1.4,3.6c-1-2.8-2.2-5.6-3.5-8.5h-1.4v9.7h0.9v-7.2l-0.1-1.7
		l3.7,8.9h0.8l3.6-8.8v8.8h0.9V103.5z"/>
	<path class="st1" d="M65.4,99.5c1.4,0,2.4-0.5,2.9-1.6c0.2-0.4,0.3-0.8,0.3-1.2c0-0.9-0.3-1.6-0.9-2.2c-0.6-0.5-1.4-0.8-2.4-0.8
		h-2.5v9.8h0.9v-4C63.7,99.5,65.4,99.5,65.4,99.5z M63.7,98.6v-4h1.5c0.8,0,1.4,0.2,1.8,0.5c0.5,0.3,0.7,0.8,0.7,1.4
		s-0.2,1.1-0.6,1.5s-1,0.5-1.7,0.5h-1.7V98.6z"/>
</g>
</svg>
