<?xml version="1.0" encoding="utf-8"?>
<!-- Generator: Adobe Illustrator 15.0.2, SVG Export Plug-In . SVG Version: 6.00 Build 0)  -->
<!DOCTYPE svg PUBLIC "-//W3C//DTD SVG 1.1//EN" "http://www.w3.org/Graphics/SVG/1.1/DTD/svg11.dtd">
<svg version="1.1" xmlns="http://www.w3.org/2000/svg" xmlns:xlink="http://www.w3.org/1999/xlink" x="0px" y="0px"
	 width="473.333px" height="243.333px" viewBox="0 0 473.333 243.333" enable-background="new 0 0 473.333 243.333"
	 xml:space="preserve">
<g id="Ebene_2">
	<polyline fill="#405FA5" points="185.666,199.333 37.666,199.333 37.666,51.333 	"/>
	<polyline fill="#8999C9" points="199.666,184.333 51.666,184.333 51.666,36.333 	"/>
	<g>
		<path fill="#405FA5" d="M279.104,187.629c-1.084-1.041-2.249-1.562-3.494-1.562c-0.703,0-1.278,0.162-1.725,0.484
			c-0.447,0.323-0.671,0.741-0.671,1.254c0,0.455,0.161,0.876,0.484,1.265c0.322,0.389,0.857,0.803,1.605,1.243l1.65,0.968
			c1.833,1.056,2.75,2.442,2.75,4.158c0,0.602-0.106,1.155-0.319,1.661s-0.51,0.938-0.891,1.298c-0.382,0.36-0.84,0.638-1.375,0.836
			c-0.536,0.198-1.126,0.297-1.771,0.297c-1.467,0-2.815-0.457-4.048-1.371v-2.722c0.264,0.337,0.472,0.583,0.625,0.737
			c0.153,0.154,0.354,0.319,0.604,0.495c0.423,0.308,0.876,0.547,1.358,0.715s0.958,0.253,1.426,0.253
			c0.672,0,1.23-0.187,1.677-0.562c0.445-0.375,0.669-0.848,0.669-1.421c0-0.47-0.168-0.926-0.505-1.366
			c-0.336-0.441-0.825-0.852-1.469-1.234l-1.622-0.992c-1.009-0.602-1.732-1.208-2.171-1.818c-0.438-0.609-0.657-1.318-0.657-2.126
			c0-0.587,0.105-1.127,0.318-1.62c0.212-0.492,0.513-0.914,0.901-1.267c0.389-0.353,0.854-0.624,1.396-0.815
			c0.542-0.191,1.144-0.287,1.803-0.287c0.615,0,1.209,0.084,1.78,0.253c0.571,0.169,1.129,0.437,1.671,0.803V187.629z"/>
		<path fill="#405FA5" d="M290.022,186.244h-6.358v4.598h6.139v1.892h-6.139v4.664h6.557v1.936h-8.712v-14.982h8.514V186.244z"/>
		<path fill="#405FA5" d="M295.786,184.33c1.525,0,2.729,0.374,3.608,1.123c0.88,0.749,1.32,1.769,1.32,3.061
			c0,0.881-0.213,1.637-0.639,2.268c-0.425,0.631-1.049,1.108-1.869,1.431c0.146,0.102,0.274,0.192,0.385,0.272
			c0.109,0.08,0.212,0.16,0.308,0.239c0.096,0.08,0.19,0.171,0.286,0.274s0.201,0.228,0.319,0.374
			c0.161,0.191,0.312,0.371,0.451,0.539c0.139,0.168,0.282,0.363,0.429,0.583c0.146,0.22,0.312,0.477,0.495,0.77
			c0.183,0.293,0.406,0.653,0.671,1.078c0.498,0.836,0.916,1.474,1.254,1.914l0.66,0.902l0.132,0.176h-2.552l-0.154-0.198
			l-0.528-0.792c-0.044-0.073-0.109-0.176-0.197-0.308c-0.089-0.132-0.191-0.293-0.309-0.484c-0.278-0.454-0.547-0.88-0.803-1.276
			c-0.257-0.396-0.466-0.711-0.627-0.946c-0.367-0.513-0.697-0.935-0.99-1.265c-0.294-0.33-0.594-0.605-0.902-0.825
			c-0.249-0.19-0.491-0.311-0.726-0.363c-0.234-0.051-0.594-0.077-1.078-0.077h-0.572v6.534h-2.134V184.33H295.786z
			 M294.158,190.908h0.836c0.294,0,0.572-0.007,0.837-0.022c0.264-0.014,0.498-0.036,0.703-0.066
			c0.602-0.073,1.082-0.324,1.441-0.751s0.539-0.95,0.539-1.569c0-0.427-0.106-0.825-0.319-1.193
			c-0.213-0.369-0.487-0.634-0.825-0.796c-0.278-0.133-0.608-0.225-0.989-0.276c-0.382-0.052-0.902-0.078-1.563-0.078h-0.66V190.908
			z"/>
		<path fill="#405FA5" d="M309.999,199.421h-0.484l-6.468-15.092h2.156l4.51,10.538l4.488-10.538h2.134L309.999,199.421z"/>
		<path fill="#405FA5" d="M319.612,199.333h-2.156V184.33h2.156V199.333z"/>
		<path fill="#405FA5" d="M335.166,187.673c-0.924-0.513-1.797-0.891-2.617-1.133c-0.822-0.242-1.665-0.363-2.53-0.363
			c-0.866,0-1.661,0.143-2.387,0.429c-0.727,0.286-1.357,0.682-1.893,1.188s-0.953,1.107-1.254,1.804s-0.451,1.456-0.451,2.277
			c0,0.822,0.146,1.581,0.44,2.277c0.293,0.697,0.704,1.295,1.231,1.793c0.528,0.499,1.159,0.888,1.893,1.166
			c0.733,0.279,1.532,0.418,2.397,0.418c1.805,0,3.579-0.557,5.324-1.672v2.354c-0.836,0.455-1.697,0.789-2.585,1.001
			s-1.845,0.319-2.871,0.319c-1.1,0-2.075-0.14-2.926-0.418c-0.851-0.278-1.643-0.726-2.376-1.342
			c-0.88-0.733-1.563-1.613-2.046-2.64c-0.484-1.026-0.727-2.112-0.727-3.256c0-1.085,0.209-2.101,0.627-3.047
			c0.418-0.946,0.99-1.768,1.717-2.464c0.726-0.696,1.584-1.243,2.573-1.639c0.99-0.396,2.058-0.594,3.201-0.594
			c0.836,0,1.661,0.096,2.476,0.286c0.813,0.191,1.741,0.506,2.782,0.946V187.673z"/>
		<path fill="#405FA5" d="M345.923,186.244h-6.358v4.598h6.139v1.892h-6.139v4.664h6.557v1.936h-8.712v-14.982h8.514V186.244z"/>
		<path fill="#405FA5" d="M366.582,198.299c-0.997,0.426-1.929,0.737-2.794,0.935c-0.865,0.198-1.768,0.297-2.706,0.297
			c-1.29,0-2.42-0.18-3.388-0.539s-1.848-0.934-2.64-1.725c-1.452-1.45-2.179-3.215-2.179-5.294c0-1.113,0.206-2.149,0.616-3.108
			c0.41-0.959,0.979-1.787,1.705-2.482c0.727-0.696,1.584-1.241,2.574-1.637c0.99-0.395,2.064-0.593,3.223-0.593
			c0.426,0,0.832,0.022,1.222,0.065c0.388,0.044,0.784,0.112,1.188,0.207s0.84,0.225,1.309,0.392c0.47,0.167,0.99,0.366,1.563,0.598
			v2.193c-0.88-0.513-1.768-0.902-2.662-1.166c-0.895-0.264-1.782-0.396-2.662-0.396c-0.821,0-1.588,0.151-2.299,0.451
			c-0.712,0.301-1.327,0.708-1.848,1.221c-0.521,0.514-0.932,1.126-1.232,1.837s-0.451,1.47-0.451,2.277
			c0,0.851,0.146,1.632,0.44,2.343c0.293,0.712,0.707,1.324,1.243,1.837c0.535,0.513,1.173,0.913,1.914,1.199
			c0.74,0.286,1.551,0.429,2.431,0.429c0.234,0,0.458-0.011,0.671-0.033s0.437-0.055,0.671-0.099s0.491-0.102,0.771-0.176
			c0.278-0.073,0.601-0.168,0.968-0.286l0.198-0.066v-3.124h-2.883v-1.892h5.038V198.299z"/>
		<path fill="#405FA5" d="M372.983,184.33c1.525,0,2.729,0.374,3.608,1.123c0.88,0.749,1.32,1.769,1.32,3.061
			c0,0.881-0.213,1.637-0.639,2.268c-0.425,0.631-1.049,1.108-1.869,1.431c0.146,0.102,0.274,0.192,0.385,0.272
			c0.109,0.08,0.212,0.16,0.308,0.239c0.096,0.08,0.19,0.171,0.286,0.274s0.201,0.228,0.319,0.374
			c0.161,0.191,0.312,0.371,0.451,0.539c0.139,0.168,0.282,0.363,0.429,0.583c0.146,0.22,0.312,0.477,0.495,0.77
			c0.183,0.293,0.406,0.653,0.671,1.078c0.498,0.836,0.916,1.474,1.254,1.914l0.66,0.902l0.132,0.176h-2.552l-0.154-0.198
			l-0.528-0.792c-0.044-0.073-0.109-0.176-0.197-0.308c-0.089-0.132-0.191-0.293-0.309-0.484c-0.278-0.454-0.547-0.88-0.803-1.276
			c-0.257-0.396-0.466-0.711-0.627-0.946c-0.367-0.513-0.697-0.935-0.99-1.265c-0.294-0.33-0.594-0.605-0.902-0.825
			c-0.249-0.19-0.491-0.311-0.726-0.363c-0.234-0.051-0.594-0.077-1.078-0.077h-0.572v6.534h-2.134V184.33H372.983z
			 M371.355,190.908h0.836c0.294,0,0.572-0.007,0.837-0.022c0.264-0.014,0.498-0.036,0.703-0.066
			c0.602-0.073,1.082-0.324,1.441-0.751s0.539-0.95,0.539-1.569c0-0.427-0.106-0.825-0.319-1.193
			c-0.213-0.369-0.487-0.634-0.825-0.796c-0.278-0.133-0.608-0.225-0.989-0.276c-0.382-0.052-0.902-0.078-1.563-0.078h-0.66V190.908
			z"/>
		<path fill="#405FA5" d="M392.487,184.714c0.99,0.389,1.844,0.924,2.563,1.606c0.719,0.682,1.283,1.496,1.694,2.442
			c0.41,0.946,0.616,1.969,0.616,3.069c0,1.115-0.206,2.142-0.616,3.08c-0.411,0.938-0.982,1.749-1.716,2.431
			c-0.733,0.682-1.599,1.218-2.596,1.606c-0.998,0.388-2.091,0.583-3.278,0.583c-1.13,0-2.178-0.195-3.146-0.583
			c-0.968-0.389-1.804-0.924-2.508-1.606c-0.704-0.682-1.258-1.488-1.661-2.42c-0.403-0.931-0.604-1.947-0.604-3.047
			c0-1.114,0.201-2.148,0.604-3.102c0.403-0.953,0.961-1.771,1.672-2.453c0.712-0.682,1.559-1.217,2.541-1.606
			c0.982-0.388,2.054-0.583,3.212-0.583C390.422,184.131,391.497,184.326,392.487,184.714z M386.976,186.584
			c-0.719,0.286-1.339,0.682-1.859,1.188s-0.928,1.107-1.221,1.804c-0.294,0.697-0.44,1.463-0.44,2.299
			c0,0.807,0.146,1.555,0.44,2.244c0.293,0.689,0.7,1.287,1.221,1.793s1.137,0.902,1.848,1.188c0.712,0.286,1.485,0.429,2.321,0.429
			s1.613-0.146,2.332-0.44c0.719-0.293,1.338-0.696,1.859-1.21c0.521-0.513,0.931-1.118,1.231-1.815
			c0.301-0.696,0.451-1.456,0.451-2.277c0-0.792-0.15-1.529-0.451-2.211c-0.301-0.682-0.711-1.276-1.231-1.782
			c-0.521-0.506-1.134-0.905-1.837-1.199c-0.704-0.293-1.467-0.44-2.288-0.44C388.486,186.155,387.694,186.298,386.976,186.584z"/>
		<path fill="#405FA5" d="M412.034,192.866c0,0.411-0.004,0.751-0.012,1.023c-0.007,0.271-0.021,0.513-0.044,0.726
			c-0.021,0.213-0.055,0.407-0.099,0.583c-0.044,0.176-0.103,0.382-0.176,0.616c-0.265,0.836-0.719,1.539-1.364,2.108
			c-1.218,1.073-2.794,1.61-4.73,1.61c-0.763,0-1.478-0.084-2.145-0.25c-0.668-0.167-1.265-0.41-1.793-0.729
			c-0.528-0.319-0.979-0.705-1.354-1.158s-0.648-0.965-0.824-1.538c-0.074-0.234-0.136-0.447-0.188-0.638s-0.088-0.396-0.109-0.616
			c-0.022-0.22-0.037-0.465-0.045-0.737c-0.007-0.271-0.011-0.612-0.011-1.023v-8.492h2.156v8.514c0,0.499,0.015,0.928,0.044,1.287
			c0.029,0.36,0.08,0.671,0.154,0.935c0.073,0.264,0.168,0.499,0.286,0.704c0.117,0.206,0.271,0.403,0.462,0.594
			c0.806,0.836,1.921,1.254,3.344,1.254c1.1,0,2.027-0.25,2.783-0.748c0.755-0.499,1.213-1.166,1.375-2.002
			c0.044-0.206,0.08-0.506,0.109-0.902s0.044-0.77,0.044-1.122v-8.514h2.135V192.866z"/>
		<path fill="#405FA5" d="M418.237,184.33h0.88c0.719,0,1.367,0.099,1.947,0.297c0.579,0.198,1.074,0.48,1.484,0.847
			c0.411,0.367,0.727,0.814,0.946,1.342s0.33,1.115,0.33,1.76c0,0.982-0.268,1.83-0.803,2.541c-0.536,0.711-1.251,1.185-2.146,1.419
			c-0.22,0.059-0.422,0.106-0.604,0.143c-0.184,0.037-0.374,0.066-0.572,0.088s-0.426,0.037-0.682,0.044
			c-0.257,0.007-0.562,0.011-0.913,0.011h-1.584v6.512h-2.156V184.33H418.237z M416.521,190.93h1.716h0.638
			c0.88,0,1.555-0.207,2.024-0.619c0.469-0.412,0.704-1.002,0.704-1.768c0-1.547-0.954-2.321-2.86-2.321h-0.594h-1.628V190.93z"/>
	</g>
	<g>
	</g>
	<g>
	</g>
</g>
<g id="Ebene_1">
	<g>
		<path d="M119.696,97.753l-5.906,16.91c-3.867-5.226-8.309-7.84-13.324-7.84c-2.79,0-4.184,1.055-4.184,3.164
			c0,0.656,0.439,1.324,1.318,2.004c0.879,0.68,3.182,1.746,6.908,3.199c4.101,1.617,7.26,3.088,9.475,4.412
			c2.215,1.324,3.873,3.018,4.975,5.08c1.102,2.063,1.652,4.465,1.652,7.207c0,5.743-2.18,10.12-6.539,13.131
			c-4.359,3.012-10.77,4.518-19.23,4.518c-9.492,0-17.672-1.348-24.539-4.043l5.801-17.93c1.688,2.625,3.779,4.711,6.275,6.258
			s4.892,2.32,7.189,2.32c1.125,0,2.068-0.293,2.83-0.879c0.761-0.585,1.143-1.301,1.143-2.145c0-0.796-0.369-1.559-1.107-2.285
			c-0.738-0.726-2.689-1.734-5.854-3.023c-2.86-1.148-5.227-2.268-7.102-3.357c-1.875-1.09-3.504-2.642-4.887-4.658
			c-1.383-2.016-2.074-4.558-2.074-7.629c0-5.953,2.167-10.441,6.504-13.465c4.336-3.023,10.734-4.535,19.195-4.535
			C105.95,94.167,113.109,95.363,119.696,97.753z"/>
		<path d="M159.985,106.332v11.883h-9.07v9.07c0,3.071,1.371,4.605,4.113,4.605c2.016,0,3.75-1.007,5.203-3.023v16.77
			c-3.422,2.25-7.582,3.375-12.48,3.375c-5.227,0-9.627-1.559-13.201-4.676c-3.574-3.117-5.361-7.406-5.361-12.867v-13.254h-8.859
			l30.586-23.977v12.094H159.985z"/>
		<path d="M188.286,149.292c-6.703,0-12.229-2.021-16.576-6.064c-4.348-4.043-6.521-9.311-6.521-15.803
			c0-6.492,2.145-11.777,6.434-15.855s9.844-6.117,16.664-6.117c6.867,0,12.451,2.039,16.752,6.117
			c4.301,4.078,6.451,9.364,6.451,15.855c0,6.469-2.15,11.73-6.451,15.785C200.736,147.266,195.153,149.292,188.286,149.292z
			 M179.286,103.941c-1.359,0-2.514-0.475-3.463-1.424s-1.424-2.104-1.424-3.463c0-1.359,0.475-2.514,1.424-3.463
			s2.104-1.424,3.463-1.424c1.359,0,2.514,0.475,3.463,1.424s1.424,2.104,1.424,3.463c0,1.359-0.475,2.514-1.424,3.463
			S180.645,103.941,179.286,103.941z M188.286,122.152c-1.406,0-2.549,0.452-3.428,1.354c-0.879,0.902-1.318,2.069-1.318,3.498
			c0,1.43,0.439,2.59,1.318,3.48c0.879,0.891,2.021,1.336,3.428,1.336c1.429,0,2.589-0.445,3.48-1.336
			c0.891-0.891,1.336-2.051,1.336-3.48c0-1.453-0.445-2.625-1.336-3.516C190.875,122.597,189.715,122.152,188.286,122.152z
			 M197.426,103.941c-1.359,0-2.514-0.475-3.463-1.424s-1.424-2.104-1.424-3.463c0-1.359,0.475-2.514,1.424-3.463
			s2.104-1.424,3.463-1.424c1.359,0,2.514,0.475,3.463,1.424s1.424,2.104,1.424,3.463c0,1.359-0.475,2.514-1.424,3.463
			S198.785,103.941,197.426,103.941z"/>
		<path d="M240.071,148.66h-21.727V95.011h21.727V148.66z"/>
		<path d="M282.329,106.332v11.883h-9.07v9.07c0,3.071,1.371,4.605,4.113,4.605c2.016,0,3.749-1.007,5.203-3.023v16.77
			c-3.423,2.25-7.582,3.375-12.48,3.375c-5.227,0-9.628-1.559-13.201-4.676c-3.574-3.117-5.361-7.406-5.361-12.867v-13.254h-8.859
			l30.586-23.977v12.094H282.329z"/>
		<path d="M310.7,106.332v42.328h-21.727v-42.328c2.859,1.617,6.574,2.426,11.145,2.426
			C304.359,108.757,307.887,107.949,310.7,106.332z M304.442,106.472c-1.688,0-3.142-0.609-4.359-1.828
			c-1.219-1.218-1.828-2.672-1.828-4.359s0.609-3.129,1.828-4.324c1.218-1.195,2.672-1.793,4.359-1.793s3.129,0.598,4.324,1.793
			s1.793,2.637,1.793,4.324s-0.598,3.141-1.793,4.359C307.571,105.863,306.129,106.472,304.442,106.472z"/>
		<path d="M340.511,106.332v5.309c3.656-3.773,8.027-5.66,13.113-5.66c4.945,0,8.736,1.377,11.373,4.131
			c2.637,2.754,3.955,6.838,3.955,12.252v26.297h-20.531v-24.68c0-3.516-1.336-5.273-4.008-5.273c-1.289,0-2.59,0.457-3.902,1.371
			v28.582h-21.727v-42.328H340.511z"/>
		<path d="M423.445,106.402v33.188c0,7.242-1.846,12.545-5.537,15.908c-3.691,3.363-9.404,5.045-17.139,5.045
			c-10.078,0-18.434-2.039-25.066-6.117v-19.23c5.18,5.04,10.945,7.559,17.297,7.559c5.859,0,8.789-1.805,8.789-5.414
			c0-0.352-0.035-0.726-0.105-1.125c-2.414,1.524-5.391,2.285-8.93,2.285c-5.25,0-9.428-1.453-12.533-4.359
			c-3.105-2.906-4.658-6.797-4.658-11.672c0-3.211,0.662-5.971,1.986-8.279c1.324-2.308,2.871-3.99,4.641-5.045
			s3.732-1.775,5.889-2.162s5.813-0.58,10.969-0.58H423.445z M401.683,118.285h-0.492c-4.852,0-7.277,1.77-7.277,5.309
			c0,1.454,0.434,2.607,1.301,3.463c0.867,0.856,2.016,1.283,3.445,1.283c1.266,0,2.273-0.304,3.023-0.914V118.285z"/>
	</g>
</g>
</svg>
