<?xml version="1.0" encoding="utf-8"?>
<!-- Generator: Adobe Illustrator 26.0.3, SVG Export Plug-In . SVG Version: 6.00 Build 0)  -->
<svg version="1.1" id="Ebene_1" xmlns="http://www.w3.org/2000/svg" xmlns:xlink="http://www.w3.org/1999/xlink" x="0px" y="0px"
	 viewBox="0 0 536.06 129.97" style="enable-background:new 0 0 536.06 129.97;" xml:space="preserve">
<style type="text/css">
	.st0{fill:#FFFFFF;}
</style>
<g>
</g>
<g>
</g>
<g>
</g>
<g>
</g>
<g>
	<g>
		<path class="st0" d="M21.88,20.81C7.85,20.81,0,28.97,0,38.96c0,11.05,9.68,15.02,15.78,17.23c4.65,1.68,8.54,2.9,8.54,5.64
			c0,2.13-2.36,4.04-7.47,4.04c-6.02,0-12.27-2.67-16.39-6.02v15.4c4.19,2.82,10.98,4.95,18.37,4.95c14.33,0,22.49-8,22.49-18.83
			c0-12.12-10.37-15.7-17.99-18.37c-4.5-1.6-7.01-2.52-7.01-4.5c0-1.91,2.29-3.35,6.78-3.35c4.96,0,11.05,1.75,14.64,4.27V24.78
			C33.62,22.41,28.05,20.81,21.88,20.81"/>
	</g>
	<g>
		<path class="st0" d="M86.67,22.04H67.68v56.92h16.63V65.42h3.5c17.14,0,25.69-10.77,25.69-22.19
			C113.51,30.43,104.12,22.04,86.67,22.04z M88.56,50.7h-4.25V37.04h4.11c4.65,0,8.31,2.29,8.31,6.8
			C96.74,48.34,93.07,50.7,88.56,50.7z"/>
	</g>
	<g>
		<g>
			<polygon class="st0" points="159.52,38.88 172.78,78.97 190.09,78.97 169.2,22.03 149.92,22.03 129.41,78.97 146.64,78.97 			"/>
		</g>
	</g>
	<g>
		<polygon class="st0" points="219.68,78.97 236.3,78.97 236.3,37.05 251.93,37.05 251.93,22.03 203.98,22.03 203.98,37.05 
			219.68,37.05 		"/>
	</g>
	<g>
		<path class="st0" d="M289.66,50.92c0-8.16,5.94-14.94,16.16-14.94c4.8,0,10.98,1.29,15.85,5.18V25.16
			c-4.65-2.67-10.67-4.57-18.3-4.57c-16.24,0-30.49,11.59-30.49,29.96s14.1,29.88,30.49,29.88c8.69,0,15.55-2.67,21.11-6.63V48.33
			h-15.02v15.85c-1.6,0.76-3.58,1.3-5.79,1.3C295.53,65.48,289.66,59.23,289.66,50.92"/>
	</g>
	<g>
		<polygon class="st0" points="350.86,78.97 390.19,78.97 390.19,64.19 367.48,64.19 367.48,57.1 387.91,57.1 387.91,43.68 
			367.48,43.68 367.48,36.82 390.19,36.82 390.19,22.03 350.86,22.03 		"/>
	</g>
	<g>
		<polygon class="st0" points="468.78,22.03 453,22.03 453,52.07 432.42,22.03 416.56,22.03 416.56,78.97 432.34,78.97 
			432.34,48.41 452.92,78.97 468.78,78.97 		"/>
	</g>
	<g>
		<path class="st0" d="M516.62,20.81c-14.03,0-21.88,8.16-21.88,18.14c0,11.05,9.68,15.02,15.78,17.23c4.65,1.68,8.54,2.9,8.54,5.64
			c0,2.13-2.36,4.04-7.47,4.04c-6.02,0-12.27-2.67-16.39-6.02v15.4c4.19,2.82,10.98,4.95,18.37,4.95c14.33,0,22.49-8,22.49-18.83
			c0-12.12-10.37-15.7-17.99-18.37c-4.5-1.6-7.01-2.52-7.01-4.5c0-1.91,2.29-3.35,6.78-3.35c4.96,0,11.05,1.75,14.64,4.27V24.78
			C528.36,22.41,522.79,20.81,516.62,20.81"/>
	</g>
	<rect x="133.89" class="st0" width="51.71" height="15.18"/>
	<g>
		<g>
			<path class="st0" d="M13.34,102.45v1.84c-1.61-1.27-3.57-2.03-5.83-2.03c-3.03,0-5.03,1.5-5.03,3.76c0,2.38,2.15,3.22,5.37,4.26
				c3.26,1.07,6.49,2.15,6.49,5.79c0,3.38-2.76,5.68-6.91,5.68c-2.42,0-4.87-0.77-6.87-2.42v-2c1.77,1.73,4.18,2.88,6.87,2.88
				c3.22,0,5.3-1.73,5.3-4.11c0-2.53-2.3-3.45-5.56-4.53c-3.38-1.07-6.29-2.11-6.29-5.45c0-3.15,2.72-5.45,6.68-5.45
				C9.69,100.69,11.76,101.34,13.34,102.45z"/>
			<path class="st0" d="M21.5,101.03h1.27l0.23,5.14c1.5-3.68,4.8-5.49,8.02-5.49c4.84,0,9.29,4.07,9.29,10.51
				c0,6.52-4.45,10.55-9.29,10.55c-3.26,0-6.52-1.84-7.91-5.3v13.16H21.5V101.03z M38.69,111.2c0-5.45-3.57-8.94-7.79-8.94
				c-4.26,0-7.87,3.49-7.87,8.98s3.65,8.98,7.83,8.98C35.09,120.22,38.69,116.73,38.69,111.2z"/>
			<path class="st0" d="M46.2,111.24c0-6.22,4.37-10.55,9.75-10.55c5.33,0,9.71,4.34,9.71,10.55c0,6.22-4.37,10.52-9.71,10.52
				C50.62,121.76,46.2,117.46,46.2,111.24z M64.05,111.24c0-5.68-3.95-8.98-8.1-8.98c-4.18,0-8.14,3.3-8.14,8.98
				c0,5.68,3.99,8.98,8.14,8.98S64.05,116.88,64.05,111.24z"/>
			<path class="st0" d="M72.03,101.03h1.3l0.15,3.8h0.04c1.23-2.84,3.95-3.99,6.02-3.99c0.42,0,0.88,0.04,1.23,0.08v1.57
				c-0.35-0.04-0.81-0.08-1.23-0.08c-2.88,0-5.87,2.03-5.91,6.1v12.89h-1.61V101.03z"/>
			<path class="st0" d="M92.4,101.03h6.06v1.5H92.4V115c0,3.76,2.03,5.14,4.91,5.14c0.58,0,1.11-0.04,1.73-0.15v1.46
				c-0.23,0.04-1.04,0.15-1.92,0.15c-3.68,0-6.33-2.07-6.33-6.52v-12.55h-3.15v-1.5h3.19v-4.8h1.57V101.03z"/>
			<path class="st0" d="M104.99,119.99c0-0.88,0.65-1.57,1.57-1.57c0.88,0,1.54,0.69,1.54,1.57s-0.65,1.57-1.54,1.57
				C105.64,121.57,104.99,120.87,104.99,119.99z"/>
			<path class="st0" d="M127.9,102.45v1.84c-1.61-1.27-3.57-2.03-5.83-2.03c-3.03,0-5.03,1.5-5.03,3.76c0,2.38,2.15,3.22,5.37,4.26
				c3.26,1.07,6.49,2.15,6.49,5.79c0,3.38-2.76,5.68-6.91,5.68c-2.42,0-4.87-0.77-6.87-2.42v-2c1.77,1.73,4.18,2.88,6.87,2.88
				c3.22,0,5.3-1.73,5.3-4.11c0-2.53-2.3-3.45-5.56-4.53c-3.38-1.07-6.29-2.11-6.29-5.45c0-3.15,2.72-5.45,6.68-5.45
				C124.26,100.69,126.33,101.34,127.9,102.45z"/>
			<path class="st0" d="M136.07,101.03h1.27l0.23,5.14c1.5-3.68,4.8-5.49,8.02-5.49c4.84,0,9.29,4.07,9.29,10.51
				c0,6.52-4.45,10.55-9.29,10.55c-3.26,0-6.52-1.84-7.91-5.3v13.16h-1.61V101.03z M153.26,111.2c0-5.45-3.57-8.94-7.79-8.94
				c-4.26,0-7.87,3.49-7.87,8.98s3.65,8.98,7.83,8.98C149.65,120.22,153.26,116.73,153.26,111.2z"/>
			<path class="st0" d="M161.15,111.24c0-6.22,4.37-10.55,9.75-10.55c5.33,0,9.71,4.34,9.71,10.55c0,6.22-4.37,10.52-9.71,10.52
				C165.57,121.76,161.15,117.46,161.15,111.24z M179,111.24c0-5.68-3.95-8.98-8.1-8.98c-4.18,0-8.14,3.3-8.14,8.98
				c0,5.68,3.99,8.98,8.14,8.98C175.04,120.22,179,116.88,179,111.24z"/>
			<path class="st0" d="M203.44,107.86v13.55h-1.61v-12.89c0-4.11-2.11-6.22-5.79-6.22c-3.45,0-6.29,2.3-6.29,6.02v13.09h-1.61
				v-20.38h1.27l0.19,3.61h0.04c1.11-2.3,3.57-3.95,6.64-3.95C200.6,100.69,203.44,103.49,203.44,107.86z"/>
			<path class="st0" d="M223.4,102.45v1.84c-1.61-1.27-3.57-2.03-5.83-2.03c-3.03,0-5.03,1.5-5.03,3.76c0,2.38,2.15,3.22,5.37,4.26
				c3.26,1.07,6.49,2.15,6.49,5.79c0,3.38-2.76,5.68-6.91,5.68c-2.42,0-4.87-0.77-6.87-2.42v-2c1.77,1.73,4.18,2.88,6.87,2.88
				c3.22,0,5.3-1.73,5.3-4.11c0-2.53-2.3-3.45-5.56-4.53c-3.38-1.07-6.29-2.11-6.29-5.45c0-3.15,2.72-5.45,6.68-5.45
				C219.76,100.69,221.83,101.34,223.4,102.45z"/>
			<path class="st0" d="M230.28,111.24c0-6.22,4.37-10.55,9.75-10.55c5.33,0,9.71,4.34,9.71,10.55c0,6.22-4.37,10.52-9.71,10.52
				C234.69,121.76,230.28,117.46,230.28,111.24z M248.12,111.24c0-5.68-3.95-8.98-8.1-8.98c-4.18,0-8.14,3.3-8.14,8.98
				c0,5.68,3.99,8.98,8.14,8.98S248.12,116.88,248.12,111.24z"/>
			<path class="st0" d="M257.25,101.03h1.3l0.15,3.8h0.04c1.23-2.84,3.95-3.99,6.02-3.99c0.42,0,0.88,0.04,1.23,0.08v1.57
				c-0.35-0.04-0.81-0.08-1.23-0.08c-2.88,0-5.87,2.03-5.91,6.1v12.89h-1.61V101.03z"/>
			<path class="st0" d="M272.23,101.03h1.61v20.38h-1.61V101.03z"/>
			<path class="st0" d="M297.98,107.86v13.55h-1.61v-12.89c0-4.11-2.11-6.22-5.79-6.22c-3.45,0-6.29,2.3-6.29,6.02v13.09h-1.61
				v-20.38h1.27l0.19,3.61h0.04c1.11-2.3,3.57-3.95,6.64-3.95C295.14,100.69,297.98,103.49,297.98,107.86z"/>
			<path class="st0" d="M322.42,105.95l0.23-4.91h1.27v19.72c0,6.52-4.41,9.21-9.02,9.21c-2.65,0-5.41-0.73-7.67-2.46v-1.96
				c2.26,1.96,4.99,2.84,7.67,2.84c3.88,0,7.41-2.3,7.41-7.33v-5.1c-1.46,3.38-4.6,5.18-7.83,5.18c-4.8,0-9.25-3.99-9.25-10.21
				c0-6.22,4.45-10.21,9.25-10.21C317.66,100.73,320.92,102.45,322.42,105.95z M306.84,110.97c0,5.18,3.61,8.63,7.79,8.63
				c4.18,0,7.75-3.49,7.75-8.75c0-5.22-3.57-8.6-7.75-8.6C310.4,102.26,306.84,105.75,306.84,110.97z"/>
			<path class="st0" d="M331.57,119.99c0-0.88,0.65-1.57,1.57-1.57c0.88,0,1.53,0.69,1.53,1.57s-0.65,1.57-1.53,1.57
				C332.22,121.57,331.57,120.87,331.57,119.99z"/>
		</g>
		<path class="st0" d="M271.48,93.63c0-0.88,0.65-1.57,1.57-1.57c0.88,0,1.53,0.69,1.53,1.57c0,0.88-0.65,1.57-1.53,1.57
			C272.13,95.2,271.48,94.51,271.48,93.63z"/>
	</g>
</g>
</svg>
